<svg width="129" height="129" viewBox="0 0 129 129" fill="none" xmlns="http://www.w3.org/2000/svg">
<defs>
<linearGradient id="paint0_linear_4837_16746" x1="64.5" y1="128.202" x2="64.5" y2="94.2024" gradientUnits="userSpaceOnUse">
<stop stop-color="#DCE7FA" stop-opacity="0"/>
<stop offset="1" stop-color="#DCE7FA"/>
</linearGradient>
<linearGradient id="paint1_linear_4837_16746" x1="76.0199" y1="88.7238" x2="76.6599" y2="103.764" gradientUnits="userSpaceOnUse">
<stop stop-color="#ABC6F4"/>
<stop offset="1" stop-color="#DCE7FA"/>
</linearGradient>
<linearGradient id="paint2_linear_4837_16746" x1="39.5397" y1="76.8839" x2="62.5797" y2="100.564" gradientUnits="userSpaceOnUse">
<stop stop-color="#F1F5FC"/>
<stop offset="1" stop-color="#DCE7FA"/>
</linearGradient>
</defs>
<path d="M64.5 94.1636C29.1538 94.1636 0.5 109.396 0.5 128.187H128.5C128.5 109.396 99.8462 94.1636 64.5 94.1636Z" fill="url(#paint0_linear_4837_16746)"/>
<path d="M62.9999 84.3286V104.012L85.6169 97.2389C86.1226 97.0881 86.4629 96.6155 86.45 96.0895L85.8321 76.8638L62.9999 84.3304V84.3286Z" fill="url(#paint1_linear_4837_16746)"/>
<path d="M62.8961 84.5234V104.207L40.2791 97.4338C39.7734 97.283 39.4332 96.8103 39.446 96.2843L40.064 77.0586L62.8961 84.5253V84.5234Z" fill="url(#paint2_linear_4837_16746)"/>
<path d="M40.0767 77.0399L62.896 69.9668V84.5397L40.0767 77.0399Z" fill="#8FB5F2"/>
<path d="M85.7229 77.0404L62.9017 69.9673V84.5402L85.7229 77.0404Z" fill="#ABC6F4"/>
<path d="M62.8961 69.9834L70.817 64.514C71.0396 64.3411 71.3338 64.2933 71.6005 64.3853L92.5991 71.6607C93.2465 71.885 93.3623 72.7512 92.7959 73.1374L85.7283 77.0565L62.8961 69.9834Z" fill="#C0D4F6"/>
<path d="M62.8963 69.9834L54.9753 64.514C54.7528 64.3411 54.4586 64.2933 54.1919 64.3853L33.1933 71.6607C32.5459 71.885 32.4301 72.7512 32.9965 73.1374L40.0641 77.0565L62.8963 69.9834Z" fill="#C0D4F6"/>
<path d="M62.8961 84.5233L70.9347 88.9702C71.1481 89.1137 71.4184 89.1504 71.663 89.0695L92.9062 82.0038C93.5775 81.7812 93.6842 80.8746 93.081 80.5031L85.7283 77.0566L62.8961 84.5233Z" fill="#C0D4F6"/>
<path d="M62.8963 84.5233L54.8576 88.9702C54.6443 89.1137 54.374 89.1504 54.1294 89.0695L32.8862 82.0038C32.2149 81.7812 32.1082 80.8746 32.7114 80.5031L40.0641 77.0566L62.8963 84.5233Z" fill="#C0D4F6"/>
<path d="M73.0828 78.7759C72.9063 78.7759 72.7297 78.7023 72.6028 78.5588C71.9132 77.7736 71.5785 76.9828 71.5785 76.1423C71.5785 75.5041 71.7936 74.8623 72.2019 74.2848C72.4042 73.9979 72.8014 73.928 73.0902 74.1303C73.3789 74.3326 73.447 74.7299 73.2447 75.0186C72.9854 75.3864 72.8548 75.7634 72.8548 76.1423C72.8548 76.6591 73.0865 77.174 73.5628 77.7165C73.7945 77.9814 73.7688 78.3841 73.504 78.6159C73.3826 78.7225 73.2336 78.774 73.0828 78.774V78.7759ZM75.9444 73.369C75.6704 73.369 75.4166 73.1906 75.3339 72.9147C75.2327 72.5782 75.424 72.2232 75.7605 72.1202L76.1743 71.9988C76.5017 71.9032 76.829 71.8076 77.1509 71.6991C77.8718 71.4563 78.5486 71.1473 79.1665 70.7832C79.47 70.603 79.8598 70.7041 80.0401 71.0076C80.2203 71.311 80.1191 71.7009 79.8157 71.8811C79.1224 72.2913 78.3628 72.637 77.5591 72.9074C77.2208 73.0214 76.8768 73.1225 76.5329 73.2237L76.1283 73.3432C76.0677 73.3616 76.0051 73.3708 75.9444 73.3708V73.369ZM82.2837 69.4002C82.1605 69.4002 82.0373 69.3653 81.9288 69.2917C81.6364 69.0949 81.5591 68.6995 81.7559 68.4071C82.4235 67.414 82.8116 66.2609 82.8483 65.1611C82.8594 64.8099 83.1591 64.5138 83.5067 64.545C83.858 64.5561 84.1339 64.8522 84.1228 65.2034C84.0769 66.5588 83.6244 67.9124 82.8134 69.1188C82.6902 69.3009 82.4897 69.4002 82.2837 69.4002ZM82.4088 62.2168C82.2028 62.2168 82.0024 62.1193 81.8791 61.9354C81.2465 60.9956 80.3214 60.1791 79.2787 59.6347C78.966 59.4729 78.8447 59.0867 79.0065 58.774C79.1683 58.4632 79.5527 58.34 79.8672 58.5037C81.1159 59.1529 82.1771 60.0926 82.9385 61.2218C83.1352 61.5142 83.058 61.9096 82.7656 62.1064C82.6571 62.18 82.532 62.2149 82.4106 62.2149L82.4088 62.2168ZM72.1026 58.7869C71.7936 58.7869 71.5214 58.5607 71.4736 58.2462C71.4203 57.8986 71.6594 57.5731 72.007 57.5198C72.2939 57.4756 72.5808 57.437 72.8695 57.4076C73.9454 57.2936 74.9955 57.2844 75.9812 57.3855C76.3306 57.4223 76.5863 57.7349 76.5495 58.0862C76.5127 58.4356 76.2056 58.6802 75.8506 58.6545C74.9532 58.5625 73.9913 58.5699 73.0037 58.6747C72.7352 58.7041 72.4667 58.7391 72.2001 58.7795C72.167 58.7851 72.1339 58.7869 72.1026 58.7869Z" fill="#E1E9F2"/>
<path d="M46.2304 61.8018C45.035 61.8018 43.9941 61.5976 43.047 61.1765C42.7251 61.033 42.5799 60.656 42.7233 60.3342C42.8668 60.0142 43.2438 59.8671 43.5656 60.0105C44.3454 60.3581 45.2171 60.5255 46.2323 60.5255C46.4897 60.5255 46.7472 60.5144 47.0065 60.4942C47.356 60.4629 47.6649 60.7296 47.6907 61.0809C47.7183 61.4321 47.4553 61.7393 47.104 61.765C46.8134 61.7871 46.521 61.7999 46.2323 61.7999L46.2304 61.8018ZM50.8006 61.0349C50.5173 61.0349 50.2599 60.8455 50.1845 60.5604C50.0943 60.2202 50.2966 59.8707 50.6369 59.7806L50.8925 59.7126C52.0474 59.4055 53.2429 59.0873 54.4511 58.9347C54.7969 58.896 55.1187 59.137 55.1628 59.4882C55.207 59.8376 54.9587 60.1558 54.6111 60.1999C53.4874 60.3416 52.3343 60.6487 51.2199 60.9448L50.9624 61.0128C50.9072 61.0275 50.852 61.0349 50.7987 61.0349H50.8006ZM40.5072 58.7103C40.2939 58.7103 40.0861 58.6036 39.9647 58.4087C39.2438 57.2464 38.8061 55.902 38.6957 54.5209C38.6681 54.1696 38.9293 53.8625 39.2806 53.8349C39.6245 53.8128 39.9389 54.0703 39.9665 54.4197C40.0603 55.6004 40.4337 56.748 41.0479 57.7374C41.2337 58.0372 41.1417 58.4289 40.8419 58.6147C40.7371 58.6809 40.6212 58.7103 40.5072 58.7103ZM39.8543 51.3448C39.7845 51.3448 39.7109 51.3337 39.641 51.308C39.31 51.1903 39.1353 50.8261 39.253 50.4951C39.7017 49.2298 40.4061 48.0216 41.287 47.0045C41.5169 46.7397 41.9215 46.7103 42.1863 46.9402C42.453 47.1719 42.4806 47.5728 42.2507 47.8395C41.4709 48.7388 40.8493 49.8036 40.4539 50.9218C40.3619 51.1829 40.1155 51.3466 39.8525 51.3466L39.8543 51.3448ZM44.7316 45.6675C44.5091 45.6675 44.292 45.5517 44.1762 45.3438C44.0033 45.0367 44.1118 44.6487 44.4189 44.4758C45.5573 43.834 46.8134 43.354 48.1504 43.0468C48.4943 42.9678 48.8364 43.1829 48.9137 43.5268C48.9927 43.8707 48.7776 44.211 48.4337 44.2901C47.2162 44.5678 46.076 45.0055 45.0442 45.5866C44.9449 45.6418 44.8383 45.6694 44.7316 45.6694V45.6675ZM63.5454 44.4335H63.5251C62.2029 44.393 60.8953 44.3084 59.6796 44.222C59.3284 44.1981 59.0635 43.8928 59.0893 43.5415C59.115 43.1903 59.413 42.9181 59.7697 42.9512C60.9725 43.0358 62.2635 43.1186 63.5638 43.159C63.915 43.1701 64.1927 43.4643 64.1817 43.8156C64.1707 44.1613 63.8874 44.4335 63.5454 44.4335ZM67.3688 44.393C67.0341 44.393 66.7546 44.1319 66.7325 43.7953C66.7104 43.4441 66.9789 43.1425 67.3302 43.1204C68.6451 43.0395 69.8902 42.8795 71.0323 42.6459C71.3762 42.576 71.7146 42.7986 71.7845 43.1425C71.8543 43.4882 71.6337 43.8248 71.2879 43.8947C70.087 44.1411 68.7812 44.3084 67.4074 44.393C67.3946 44.393 67.3799 44.393 67.367 44.393H67.3688ZM55.9114 43.9627C55.8985 43.9627 55.8856 43.9627 55.8746 43.9627C55.5858 43.9461 55.2971 43.9314 55.0102 43.9167C54.1385 43.8744 53.4341 43.8634 52.7794 43.8579C52.5532 43.8579 52.3288 43.8615 52.1045 43.8671C51.7477 43.8505 51.4589 43.5967 51.4516 43.2455C51.4424 42.8942 51.7201 42.6018 52.0732 42.5926C52.3288 42.5871 52.5845 42.5815 52.8419 42.5834C53.4966 42.5834 54.2047 42.6018 55.0709 42.6441C55.3633 42.6588 55.6557 42.6753 55.9481 42.6919C56.2994 42.7121 56.5679 43.0137 56.5477 43.365C56.5274 43.7052 56.2461 43.9664 55.9114 43.9664V43.9627ZM74.8189 42.8022C74.5688 42.8022 74.3316 42.6533 74.2304 42.4087C74.0962 42.0832 74.2507 41.7098 74.5762 41.5756C74.9863 41.4064 75.3891 41.2206 75.7716 41.0257C76.4704 40.6689 77.1472 40.2533 77.778 39.7917C78.0631 39.5838 78.4622 39.6445 78.6681 39.9296C78.8759 40.2147 78.8134 40.6119 78.5284 40.8197C77.8424 41.3218 77.1086 41.7724 76.3491 42.1586C75.9371 42.3682 75.5049 42.5687 75.0635 42.7507C74.9845 42.7838 74.9017 42.7986 74.8189 42.7986V42.8022ZM80.921 38.3204C80.7794 38.3204 80.6378 38.2744 80.5201 38.1788C80.2461 37.9581 80.2038 37.5553 80.4245 37.2813C81.2061 36.3158 81.8277 35.2657 82.2746 34.1659C82.407 33.8386 82.7785 33.6822 83.104 33.8147C83.4295 33.9471 83.5877 34.3186 83.4553 34.6441C82.9624 35.8615 82.2764 37.0202 81.4157 38.085C81.2888 38.2413 81.1049 38.3222 80.9192 38.3222L80.921 38.3204Z" fill="#E1E9F2"/>
<path d="M57.4736 58.9394C57.5042 59.2326 57.7294 59.4594 58.0093 59.503L58.0074 59.5027C58.0601 59.511 58.1158 59.5122 58.1726 59.5061L58.4374 59.4785L58.4542 59.4768C59.5958 59.3563 60.7764 59.2317 61.9029 59.2646C62.2532 59.2745 62.5475 58.9983 62.5576 58.6463C62.5681 58.2924 62.2872 58.0048 61.9396 57.9897C60.7242 57.9546 59.4961 58.0845 58.3094 58.21L58.3037 58.2106L58.0406 58.2385C57.6906 58.2752 57.4369 58.5893 57.4736 58.9394Z" fill="#E1E9F2"/>
<path d="M64.4553 58.4249C64.469 58.7195 64.6808 58.9589 64.9576 59.0185L64.9558 59.0181C65.008 59.0293 65.0635 59.0338 65.1205 59.031L65.3865 59.0187L65.4033 59.0179C66.55 58.9633 67.7358 58.9069 68.8586 59.0046C69.2077 59.0346 69.5174 58.7759 69.5478 58.425C69.5786 58.0723 69.3147 57.769 68.9686 57.734C67.7572 57.629 66.5237 57.6879 65.3318 57.7449L65.3259 57.7452L65.0617 57.7579C64.7101 57.7744 64.4388 58.0734 64.4553 58.4249Z" fill="#E1E9F2"/>
<path d="M104.603 22.5978L84.9889 25.1651L81.0331 21.7169C80.4685 21.2258 80.8639 20.3026 81.6069 20.367L104.108 22.3477C104.32 22.3679 104.485 22.458 104.603 22.5959V22.5978Z" fill="#C0D4F6"/>
<path d="M104.61 23.6348L95.7569 33.5401C95.481 33.8564 94.9973 33.8895 94.6755 33.6099L89.5077 29.106L104.767 22.8789C104.846 23.1217 104.807 23.4067 104.608 23.6348H104.61Z" fill="#C0D4F6"/>
<path d="M104.768 22.879L89.5095 29.1062L84.8677 32.6446C84.384 33.0142 83.698 32.5967 83.8028 31.9972L84.9909 25.165L104.605 22.5977C104.678 22.6804 104.733 22.7742 104.77 22.879H104.768Z" fill="#8FB5F2"/>
<path d="M92.7022 31.8891L85.5095 33.342C85.1656 33.4082 84.8107 33.3107 84.5477 33.0753L84.0861 32.6652C84.3049 32.8215 84.6194 32.8399 84.8677 32.6486L89.5095 29.1084L92.704 31.8891H92.7022Z" fill="#7BA8EF"/>
</svg>
